<svg width="15" height="16" viewBox="0 0 15 16" fill="none" xmlns="http://www.w3.org/2000/svg">
<path d="M7.66582 3.46736C7.6222 3.42563 7.56417 3.40234 7.50381 3.40234C7.44345 3.40234 7.38541 3.42563 7.34179 3.46736L1.94824 8.61979C1.92534 8.64171 1.90711 8.66804 1.89468 8.69719C1.88224 8.72635 1.87584 8.75773 1.87588 8.78942L1.875 13.6252C1.875 13.8738 1.97377 14.1123 2.14959 14.2881C2.3254 14.4639 2.56386 14.5627 2.8125 14.5627H5.62793C5.75225 14.5627 5.87148 14.5133 5.95938 14.4254C6.04729 14.3375 6.09668 14.2182 6.09668 14.0939V10.1095C6.09668 10.0474 6.12137 9.98777 6.16532 9.94381C6.20928 9.89986 6.26889 9.87517 6.33105 9.87517H8.6748C8.73696 9.87517 8.79658 9.89986 8.84053 9.94381C8.88448 9.98777 8.90918 10.0474 8.90918 10.1095V14.0939C8.90918 14.2182 8.95856 14.3375 9.04647 14.4254C9.13438 14.5133 9.25361 14.5627 9.37793 14.5627H12.1922C12.4408 14.5627 12.6793 14.4639 12.8551 14.2881C13.0309 14.1123 13.1297 13.8738 13.1297 13.6252V8.78942C13.1297 8.75773 13.1233 8.72635 13.1109 8.69719C13.0984 8.66804 13.0802 8.64171 13.0573 8.61979L7.66582 3.46736Z" fill="white"/>
<path d="M14.3821 7.65381L12.1907 5.55732V2.37598C12.1907 2.25166 12.1413 2.13243 12.0534 2.04452C11.9655 1.95661 11.8463 1.90723 11.722 1.90723H10.3157C10.1914 1.90723 10.0722 1.95661 9.98427 2.04452C9.89637 2.13243 9.84698 2.25166 9.84698 2.37598V3.31348L8.15011 1.69102C7.99132 1.53047 7.75518 1.43848 7.50001 1.43848C7.24571 1.43848 7.01016 1.53047 6.85138 1.69131L0.619933 7.65322C0.437706 7.829 0.414855 8.11816 0.580675 8.30859C0.622315 8.35666 0.6733 8.39575 0.730528 8.42349C0.787756 8.45122 0.850029 8.46703 0.913558 8.46993C0.977087 8.47284 1.04054 8.46278 1.10006 8.44039C1.15958 8.41799 1.21392 8.38371 1.25978 8.33965L7.33888 2.53066C7.38249 2.48894 7.44053 2.46565 7.50089 2.46565C7.56125 2.46565 7.61928 2.48894 7.6629 2.53066L13.7426 8.33965C13.8321 8.42553 13.9521 8.4724 14.0762 8.46999C14.2002 8.46757 14.3183 8.41606 14.4044 8.32676C14.5843 8.14043 14.5693 7.83281 14.3821 7.65381Z" fill="white"/>
</svg>
